<?xml version="1.0" encoding="utf-8"?>
<!-- Generator: Adobe Illustrator 21.0.0, SVG Export Plug-In . SVG Version: 6.00 Build 0)  -->
<svg version="1.1" xmlns="http://www.w3.org/2000/svg" xmlns:xlink="http://www.w3.org/1999/xlink" x="0px" y="0px"
	 viewBox="0 0 1050 300" style="enable-background:new 0 0 1050 300;" xml:space="preserve">
<style type="text/css">
	.st0{fill:#1B365D;}
	.st1{fill:#BA0C2F;}
</style>
<g id="Layer_1">
	<g>
		<path class="st0" d="M374.1,112.4c0,7.6-1.2,14.8-3.5,21.5c-2.3,6.7-6.2,12.6-11.7,17.6c-5.4,5-12.6,8.9-21.5,11.8
			c-8.9,2.9-19.9,4.3-33,4.2c-1.9,0-3.5,0-5,0c-1.5,0-3.1,0-4.8-0.1c-1.8,0-3.8-0.2-6.2-0.4c-2.4-0.2-5.5-0.6-9.3-1v55.4
			c0,6.3,0.3,11.4,0.9,15.3c0.6,3.9,1.7,6.6,3.4,8c3.7,4.4,9.4,6.6,16.9,6.6h7.5v5.4h-85.1v-5.4h7.2c4.1,0,7.7-0.6,10.7-1.9
			c3-1.3,5.4-3.3,7.2-6c0.8-1.6,1.5-4.1,2.1-7.7c0.6-3.6,0.9-8.3,0.9-14.2V92.7c0-12.2-1.3-20.1-3.8-23.5c-2-2.1-4.3-3.6-7.1-4.7
			c-2.7-1.1-6.1-1.6-10-1.6h-7.2v-5.4h72.6c5.1,0,10.2,0.1,15.4,0.4c5.2,0.3,10.2,0.9,15.1,1.8c4.8,0.9,9.5,2.2,13.9,3.8
			c4.4,1.6,8.3,3.7,11.7,6.4c3.2,2.4,6.2,4.9,9,7.7c2.8,2.8,5.2,5.9,7.3,9.3c2.1,3.4,3.7,7.2,4.8,11.4
			C373.5,102.5,374.1,107.2,374.1,112.4z M340.5,115.5c0.1-6.1-0.7-11.9-2.5-17.6c-1.8-5.6-4.4-10.6-7.9-14.8
			c-3.5-4.3-8-7.7-13.3-10.2c-5.3-2.5-11.5-3.8-18.6-3.8c-2.4,0-5.1,0.3-8.4,0.8c-3.2,0.5-6.9,1.2-10.9,2v84.4
			c5.1,0.8,9.7,1.3,13.7,1.5c4,0.2,7.4,0.3,10.3,0.3c5.1,0,9.9-1,14.5-3c4.6-2,8.5-4.9,11.9-8.6c3.4-3.7,6.1-8.2,8.1-13.4
			C339.4,127.8,340.4,121.9,340.5,115.5z"/>
		<path class="st0" d="M558.3,209.6c-4.9,8.7-10.1,16.2-15.7,22.5c-5.6,6.4-11.8,11.7-18.5,15.9c-6.7,4.2-14,7.4-21.9,9.5
			c-7.9,2.1-16.5,3.1-25.8,3.1c-10.1,0-19.5-1.2-28.1-3.7c-8.7-2.5-16.5-5.9-23.7-10.4c-7.1-4.4-13.5-9.7-19-16
			c-5.5-6.2-10.1-13-13.9-20.5c-3.8-7.4-6.7-15.4-8.6-23.9c-1.9-8.5-2.9-17.2-2.9-26.2c0-14.4,2.4-28,7.2-40.9
			c4.8-12.9,11.6-24.2,20.4-33.9c8.8-9.7,19.4-17.4,31.9-23.1c12.4-5.7,26.2-8.5,41.4-8.5c7.5,0,14.1,0.7,19.8,2.2
			c5.7,1.5,10.6,3,14.7,4.7c4.1,1.7,7.6,3.3,10.3,4.7c2.7,1.5,4.8,2.2,6.3,2.2c2.6,0,5-1.1,7.2-3.4c2.2-2.3,3.8-5.8,4.9-10.4h5.2
			l4.7,67.2h-4.7c-3-10.1-6.7-18.8-11.1-25.9c-4.4-7.2-9.4-13.1-14.9-17.6c-5.6-4.6-11.7-7.9-18.4-10.1c-6.7-2.1-13.9-3.2-21.6-3.2
			c-10.2,0-19.6,1.9-28.1,5.8c-8.6,3.8-15.9,9.7-22.1,17.7c-6.2,8-11,18-14.5,30c-3.5,12.1-5.2,26.3-5.2,42.9
			c0,14.1,1.8,26.6,5.3,37.5c3.5,10.9,8.6,20,15.1,27.4c6.5,7.4,14.3,13,23.4,16.8c9.1,3.8,19.2,5.7,30.4,5.7
			c6.5,0,12.5-0.6,18.1-1.8c5.5-1.2,10.9-3.4,16.2-6.4c5.2-3.1,10.5-7.2,15.7-12.5c5.2-5.3,10.7-12.1,16.5-20.3L558.3,209.6z"/>
		<path class="st1" d="M78.1,20.9c0,0-33.4,69.5,0,142.1c33.4,72.7,12.5,94.1-1.2,116c0,0,55.2-14.4,17.3-112.8
			C56.3,67.9,72.3,69.6,78.1,20.9z"/>
		<g>
			<path class="st0" d="M55.5,240.6c0,0-2.7,11.3-3.5,14.5c0,0,16.2,3.3,27.8,0.8c0,0-15.6-0.8-23.2-3.7c0,0,2.4-5.3,3.7-8.5
				L55.5,240.6z"/>
			<path class="st0" d="M59.9,216.1c0,0-2.4,11.5-3,14.8c0,0,16.6,2.7,28.2-0.2c0,0-15.9-0.2-23.6-2.9c0,0,2.3-5.5,3.4-8.8
				L59.9,216.1z"/>
			<path class="st0" d="M59.9,190.8c0,0-2.4,11.5-3,14.8c0,0,16.6,2.7,28.2-0.2c0,0-15.9-0.2-23.6-2.9c0,0,2.3-5.5,3.4-8.8
				L59.9,190.8z"/>
			<path class="st0" d="M50.8,167.7c0,0-2.3,11.1-2.9,14.3c0,0,16,2.6,27.3-0.2c0,0-15.3-0.2-22.8-2.8c0,0,2.2-5.3,3.3-8.5
				L50.8,167.7z"/>
			<path class="st0" d="M43.4,142.4c0,0-2.4,11.1-3.1,14.2c0,0,16,2.9,27.3,0.2c0,0-15.3-0.4-22.8-3.1c0,0,2.3-5.2,3.4-8.4
				L43.4,142.4z"/>
			<path class="st0" d="M33.9,121.3c0,0-2.4,11.1-3.1,14.2c0,0,16,2.9,27.3,0.2c0,0-15.3-0.4-22.8-3.1c0,0,2.3-5.2,3.4-8.4
				L33.9,121.3z"/>
			<path class="st0" d="M29.8,95.3c0,0-2.4,11.1-3.1,14.2c0,0,16,2.9,27.3,0.2c0,0-15.3-0.4-22.8-3.1c0,0,2.3-5.2,3.4-8.4L29.8,95.3
				z"/>
			<path class="st0" d="M30.8,71.1c0,0-2.4,11.1-3.1,14.2c0,0,16,2.9,27.3,0.2c0,0-15.3-0.4-22.8-3.1c0,0,2.3-5.2,3.4-8.4L30.8,71.1
				z"/>
			<path class="st0" d="M38.3,47.9c0,0-2.1,9.6-2.7,12.3c0,0,13.8,2.5,23.6,0.2c0,0-13.2-0.4-19.7-2.7c0,0,2-4.5,3-7.3L38.3,47.9z"
				/>
			<path class="st0" d="M46.3,24.7c0,0-1.7,9.5-2.2,12.2c0,0,11.5,2.5,19.6,0.2c0,0-11-0.4-16.4-2.7c0,0,1.6-4.5,2.4-7.2L46.3,24.7z
				"/>
		</g>
		<path class="st0" d="M640,99.3c0,1-0.1,2.1-0.4,3.1c-0.3,1.1-0.6,2.1-1.1,3.1c-0.5,1-1.1,2-1.9,3c-0.7,0.9-1.6,1.8-2.5,2.5
			c-0.9,0.7-2,1.3-3.1,1.9c-1.2,0.5-2.5,1-4.1,1.3c-1.5,0.3-3.3,0.6-5.2,0.8c-2,0.2-4.2,0.3-6.7,0.3h-27.5v-1.6h2.1
			c2.4,0,4.2-0.8,5.3-2.3c0.3-0.5,0.5-1.3,0.7-2.3c0.2-1.1,0.3-2.4,0.3-4.1V67.2c0-3.6-0.4-5.9-1.2-6.9c-0.6-0.6-1.3-1.1-2.1-1.4
			c-0.8-0.3-1.8-0.5-2.9-0.5h-2.1v-1.6h25.2c3.4,0,6.4,0.2,9,0.7c2.5,0.4,4.7,1.1,6.6,1.8c1.8,0.8,3.3,1.7,4.5,2.7
			c1.2,1,2.1,2.1,2.8,3.3c0.7,1.2,1.1,2.3,1.4,3.6c0.3,1.2,0.4,2.4,0.4,3.6c0,1.4-0.2,2.8-0.7,4.1c-0.4,1.3-1.1,2.5-2,3.7
			c-0.9,1.1-2,2.1-3.3,3c-1.3,0.9-2.9,1.6-4.7,2.1c2.3,0.4,4.3,1.1,6,2c1.7,0.9,3,1.9,4.1,3.1c1.1,1.2,1.9,2.6,2.4,4.1
			C639.7,96.1,640,97.7,640,99.3z M628.2,72.1c0-1.7-0.3-3.2-1-4.7c-0.7-1.5-1.7-2.8-3-3.9c-1.4-1.1-3.1-2-5.1-2.7
			c-2-0.7-4.4-1-7.2-1c-1.5,0-2.8,0.1-4.1,0.2c-1.3,0.1-2.5,0.4-3.7,0.7v22.5c1.1,0.3,2.3,0.4,3.7,0.5c1.3,0.1,2.8,0.1,4.6,0.1
			c2.8,0,5.3-0.3,7.3-0.8c2-0.5,3.7-1.3,4.9-2.3c1.3-1,2.2-2.2,2.8-3.6C627.9,75.5,628.2,73.9,628.2,72.1z M630,100
			c0-2-0.4-3.7-1.2-5.4c-0.8-1.6-2-3-3.5-4.2c-1.5-1.2-3.4-2.1-5.7-2.8c-2.3-0.7-4.9-1-7.8-1c-1.8,0-3.4,0-4.6,0.1
			c-1.2,0.1-2.3,0.2-3.1,0.3v24c1.7,0.4,3.4,0.7,5,0.9c1.6,0.2,3.3,0.3,5,0.3c2.6,0,4.9-0.3,6.9-0.9c2-0.6,3.7-1.5,5-2.5
			c1.4-1.1,2.4-2.4,3.1-3.9C629.7,103.4,630,101.8,630,100z"/>
		<path class="st0" d="M675.5,115.3v-1.6c2,0,3.5-0.3,4.3-0.9c0.9-0.6,1.4-1.3,1.5-2.2c0.1-0.9,0-1.9-0.4-3
			c-0.4-1.1-0.8-2.3-1.3-3.5l-3.5-8.4h-22.6l-3.9,9.3c-0.5,1.3-1,2.5-1.2,3.5c-0.3,1-0.3,1.9,0,2.6c0.3,0.7,1,1.3,2,1.7
			c1,0.4,2.5,0.7,4.6,0.9v1.6h-18.4v-1.6c1.2-0.1,2.3-0.4,3.2-0.8c0.9-0.4,1.7-1.1,2.5-1.9c0.7-0.8,1.4-1.9,2-3.1
			c0.6-1.2,1.3-2.6,2-4.2l20.4-48h1.5l20.2,48.4c0.9,2,1.6,3.7,2.3,4.9c0.7,1.2,1.4,2.2,2.1,2.8c0.7,0.7,1.5,1.1,2.4,1.4
			c0.9,0.2,1.9,0.4,3.1,0.5v1.6H675.5z M665.1,69.1L655,92.7h20L665.1,69.1z"/>
		<path class="st0" d="M746.7,101.6c-1.4,2.6-3,4.8-4.7,6.7c-1.7,1.9-3.5,3.4-5.5,4.7c-2,1.3-4.1,2.2-6.5,2.8
			c-2.3,0.6-4.9,0.9-7.6,0.9c-3,0-5.8-0.4-8.3-1.1c-2.6-0.7-4.9-1.8-7-3.1c-2.1-1.3-4-2.9-5.6-4.7c-1.6-1.8-3-3.9-4.1-6.1
			c-1.1-2.2-2-4.6-2.5-7.1c-0.6-2.5-0.9-5.1-0.9-7.7c0-4.3,0.7-8.3,2.1-12.1c1.4-3.8,3.4-7.2,6-10c2.6-2.9,5.7-5.2,9.4-6.8
			c3.7-1.7,7.8-2.5,12.2-2.5c2.2,0,4.2,0.2,5.8,0.6c1.7,0.4,3.1,0.9,4.4,1.4c1.2,0.5,2.2,1,3,1.4c0.8,0.4,1.4,0.6,1.9,0.6
			c0.8,0,1.5-0.3,2.1-1c0.6-0.7,1.1-1.7,1.4-3.1h1.6l1.4,19.9h-1.4c-0.9-3-2-5.5-3.3-7.7c-1.3-2.1-2.8-3.9-4.4-5.2
			c-1.7-1.4-3.5-2.3-5.5-3c-2-0.6-4.1-0.9-6.4-0.9c-3,0-5.8,0.6-8.3,1.7c-2.5,1.1-4.7,2.9-6.5,5.2c-1.8,2.4-3.3,5.3-4.3,8.9
			c-1,3.6-1.6,7.8-1.6,12.7c0,4.2,0.5,7.9,1.6,11.1c1,3.2,2.5,5.9,4.5,8.1c1.9,2.2,4.2,3.8,6.9,5c2.7,1.1,5.7,1.7,9,1.7
			c1.9,0,3.7-0.2,5.3-0.5c1.6-0.4,3.2-1,4.8-1.9c1.6-0.9,3.1-2.1,4.6-3.7c1.5-1.6,3.2-3.6,4.9-6L746.7,101.6z"/>
		<path class="st0" d="M784.3,115.3v-1.6c1.7,0,2.9-0.3,3.6-0.8c0.7-0.5,1.1-1.1,1.1-1.9c0.1-0.6-0.1-1.3-0.6-1.9
			c-0.5-0.7-1.4-1.7-2.6-2.9l-17.6-17.5l-2.5,2.5V105c0,0.9,0,1.8,0,2.5c0,0.7,0.1,1.3,0.2,1.8c0.1,0.5,0.2,1,0.3,1.3
			c0.1,0.4,0.3,0.7,0.5,1c0.5,0.7,1.2,1.2,2.2,1.6c1,0.4,2,0.5,3.1,0.5h2v1.6h-24.9v-1.6h2c2.4,0,4.1-0.7,5.3-2.1
			c0.6-0.8,0.9-3,0.9-6.6V67.2c0-2-0.1-3.5-0.3-4.6c-0.2-1.1-0.5-1.8-0.8-2.3c-0.2-0.2-0.4-0.4-0.8-0.6c-0.4-0.2-0.8-0.4-1.3-0.6
			s-1-0.3-1.5-0.5c-0.5-0.1-1-0.2-1.5-0.2h-2v-1.6H774v1.6h-2c-0.9,0-1.7,0.1-2.6,0.4c-0.9,0.3-1.6,0.7-2.2,1.3
			c-0.2,0.2-0.4,0.5-0.6,0.8c-0.2,0.3-0.3,0.7-0.5,1.2c-0.1,0.5-0.2,1.2-0.3,2c-0.1,0.8-0.1,1.8-0.1,3.1v18.3c0.3-0.3,1-0.8,1.9-1.7
			c1-0.9,2.3-2.1,4-3.7c4.3-4,7.7-7.3,10.3-10.1c2.6-2.7,4.3-4.8,5.2-6c0.7-1.1,1.1-2.1,1.1-3.1c0-0.6-0.3-1.1-0.9-1.6
			c-0.6-0.5-1.6-0.8-3-0.8h-1.4v-1.6h21.6v1.6c-0.6,0-1.2,0-1.7,0.1c-0.5,0.1-1.1,0.2-1.7,0.3c-0.6,0.2-1.2,0.4-1.8,0.7
			c-0.6,0.3-1.3,0.7-2.1,1.2c-0.6,0.4-1.2,0.7-1.6,1c-0.4,0.3-0.9,0.6-1.3,1c-0.4,0.4-0.9,0.8-1.5,1.3c-0.5,0.5-1.2,1.2-2.1,2
			c-0.8,0.8-1.9,1.9-3.1,3.1c-1.2,1.2-2.8,2.8-4.7,4.7l-8.9,8.9l21.6,21.5c3.5,3.5,6.6,5.9,9.1,7.2c1.3,0.7,2.5,1.2,3.7,1.5
			c1.2,0.3,2.5,0.5,3.7,0.6v1.6H784.3z"/>
		<path class="st0" d="M871.8,72.4c0,2.3-0.3,4.4-1,6.4c-0.7,2-1.9,3.7-3.5,5.2c-1.6,1.5-3.7,2.7-6.4,3.5c-2.6,0.9-5.9,1.3-9.8,1.2
			c-0.6,0-1,0-1.5,0c-0.4,0-0.9,0-1.4,0c-0.5,0-1.1-0.1-1.9-0.1c-0.7-0.1-1.6-0.2-2.8-0.3v16.5c0,1.9,0.1,3.4,0.3,4.6
			c0.2,1.2,0.5,2,1,2.4c1.1,1.3,2.8,2,5,2h2.2v1.6h-25.3v-1.6h2.1c1.2,0,2.3-0.2,3.2-0.6c0.9-0.4,1.6-1,2.1-1.8
			c0.2-0.5,0.4-1.2,0.6-2.3c0.2-1.1,0.3-2.5,0.3-4.2V66.5c0-3.6-0.4-6-1.1-7c-0.6-0.6-1.3-1.1-2.1-1.4c-0.8-0.3-1.8-0.5-3-0.5h-2.1
			V56h21.6c1.5,0,3,0,4.6,0.1c1.5,0.1,3,0.3,4.5,0.5c1.4,0.3,2.8,0.7,4.1,1.1c1.3,0.5,2.5,1.1,3.5,1.9c1,0.7,1.9,1.5,2.7,2.3
			c0.8,0.8,1.6,1.8,2.2,2.8c0.6,1,1.1,2.1,1.4,3.4C871.6,69.5,871.8,70.8,871.8,72.4z M861.8,73.3c0-1.8-0.2-3.5-0.7-5.2
			c-0.5-1.7-1.3-3.1-2.4-4.4c-1-1.3-2.4-2.3-4-3c-1.6-0.8-3.4-1.1-5.5-1.1c-0.7,0-1.5,0.1-2.5,0.2c-1,0.2-2,0.4-3.2,0.6v25.1
			c1.5,0.2,2.9,0.4,4.1,0.4c1.2,0.1,2.2,0.1,3.1,0.1c1.5,0,3-0.3,4.3-0.9c1.4-0.6,2.5-1.4,3.5-2.6c1-1.1,1.8-2.4,2.4-4
			C861.5,77,861.8,75.2,861.8,73.3z"/>
		<path class="st0" d="M900.5,115.3v-1.6c2.1,0,3.5-0.3,4.4-0.9c0.9-0.6,1.4-1.3,1.5-2.2c0.1-0.9,0-1.9-0.4-3.1
			c-0.4-1.2-0.8-2.3-1.3-3.5l-3.5-8.5h-23l-4,9.5c-0.6,1.3-1,2.5-1.3,3.6c-0.3,1-0.3,1.9,0,2.6c0.3,0.7,1,1.3,2,1.7
			c1,0.4,2.6,0.7,4.7,0.9v1.6h-18.8v-1.6c1.3-0.1,2.3-0.4,3.3-0.8c0.9-0.5,1.8-1.1,2.5-1.9c0.7-0.8,1.4-1.9,2.1-3.1
			c0.6-1.2,1.3-2.7,2-4.3l20.8-48.9h1.6l20.6,49.3c0.9,2.1,1.7,3.7,2.4,5c0.7,1.2,1.4,2.2,2.2,2.9c0.7,0.7,1.6,1.1,2.4,1.4
			c0.9,0.2,1.9,0.4,3.2,0.5v1.6H900.5z M889.9,68.2l-10.3,24H900L889.9,68.2z"/>
		<path class="st0" d="M925.5,115.3v-1.6h2.1c1.2,0,2.3-0.2,3.1-0.5c0.8-0.3,1.6-0.9,2.1-1.6c0.7-0.8,1-3.1,1-6.7V66.5
			c0-1,0-1.9,0-2.6c0-0.7-0.1-1.3-0.1-1.8c-0.1-0.5-0.2-0.9-0.3-1.3c-0.1-0.4-0.3-0.7-0.5-0.9c-0.6-0.7-1.3-1.2-2.3-1.6
			c-1-0.4-2-0.6-3-0.6h-2.1V56h25.4v1.6h-2.1c-2.3,0-4.1,0.7-5.2,2.1c-0.3,0.5-0.6,1.3-0.8,2.4c-0.2,1.1-0.3,2.6-0.3,4.3v38.3
			c0,1.9,0.1,3.4,0.3,4.5c0.2,1,0.4,1.8,0.7,2.4c0.1,0.2,0.4,0.5,0.8,0.7c0.4,0.2,0.8,0.5,1.3,0.7c0.5,0.2,1,0.4,1.6,0.5
			c0.6,0.1,1.1,0.2,1.6,0.2h2.1v1.6H925.5z"/>
		<path class="st0" d="M1014.2,57.7c-1.3,0-2.3,0.2-3.2,0.5c-0.9,0.4-1.6,0.9-2.1,1.7c-0.6,1-0.9,3.1-0.9,6.5v49.9h-1.6l-39.2-47.7
			V105c0,3.6,0.4,6,1.2,6.9c1.1,1.2,2.8,1.8,5.2,1.8h2.1v1.6h-20.7v-1.6h2.1c1.3,0,2.4-0.2,3.3-0.5c0.9-0.3,1.6-0.9,2.1-1.7
			c0.4-0.5,0.6-1.2,0.8-2.3c0.2-1,0.3-2.4,0.3-4.2V63.8c-0.3-0.3-0.6-0.8-1.1-1.5c-0.4-0.7-1-1.4-1.7-2.1c-0.7-0.7-1.7-1.3-2.8-1.8
			c-1.2-0.5-2.6-0.8-4.3-0.8V56h14.5l36.2,44.5V66.3c0-3.8-0.4-6-1.2-6.8c-1.1-1.3-2.8-1.9-5.2-1.9h-2V56h20.5v1.6H1014.2z"/>
		<g>
			<path class="st0" d="M648,181.5c-1.7,2.9-3.4,5.5-5.3,7.7c-1.9,2.2-4,4-6.3,5.4c-2.3,1.4-4.8,2.5-7.4,3.2
				c-2.7,0.7-5.6,1.1-8.8,1.1c-3.4,0-6.6-0.4-9.6-1.3c-2.9-0.8-5.6-2-8-3.5c-2.4-1.5-4.6-3.3-6.4-5.4c-1.9-2.1-3.4-4.4-4.7-7
				c-1.3-2.5-2.3-5.2-2.9-8.1c-0.7-2.9-1-5.9-1-8.9c0-4.9,0.8-9.5,2.5-13.9c1.6-4.4,3.9-8.2,6.9-11.5c3-3.3,6.6-5.9,10.8-7.8
				c4.2-1.9,8.9-2.9,14.1-2.9c2.5,0,4.8,0.2,6.7,0.7c1.9,0.5,3.6,1,5,1.6c1.4,0.6,2.6,1.1,3.5,1.6c0.9,0.5,1.6,0.7,2.1,0.7
				c0.9,0,1.7-0.4,2.5-1.2c0.7-0.8,1.3-2,1.7-3.5h1.8l1.6,22.8H645c-1-3.4-2.3-6.4-3.8-8.8c-1.5-2.4-3.2-4.4-5.1-6
				c-1.9-1.6-4-2.7-6.3-3.4c-2.3-0.7-4.7-1.1-7.3-1.1c-3.5,0-6.7,0.7-9.6,2c-2.9,1.3-5.4,3.3-7.5,6c-2.1,2.7-3.7,6.1-4.9,10.2
				c-1.2,4.1-1.8,8.9-1.8,14.6c0,4.8,0.6,9,1.8,12.7c1.2,3.7,2.9,6.8,5.1,9.3c2.2,2.5,4.9,4.4,7.9,5.7c3.1,1.3,6.5,1.9,10.3,1.9
				c2.2,0,4.3-0.2,6.1-0.6c1.9-0.4,3.7-1.1,5.5-2.2c1.8-1,3.6-2.5,5.3-4.3c1.8-1.8,3.6-4.1,5.6-6.9L648,181.5z"/>
			<path class="st0" d="M702.9,197.2h-51.8v-1.8h2.3c0.3,0,0.7,0,1.1-0.1c0.4-0.1,0.9-0.1,1.4-0.2c0.5-0.1,1-0.3,1.5-0.5
				c0.5-0.2,0.9-0.4,1.2-0.7c0.3-0.3,0.6-0.6,0.9-1c0.2-0.4,0.5-0.9,0.6-1.5c0.2-0.6,0.3-1.4,0.4-2.4c0.1-1,0.1-2.2,0.1-3.7v-43.6
				c0-2.2-0.1-3.9-0.3-5.2c-0.2-1.3-0.5-2.2-0.9-2.6c-1.2-1.4-3.2-2-6-2h-2.3v-1.8h51.8l0.8,14.6h-2c-0.2-1-0.4-1.9-0.6-2.8
				c-0.2-0.9-0.4-1.8-0.7-2.6c-0.3-0.8-0.7-1.6-1.2-2.3c-0.5-0.7-1.2-1.3-2.1-1.8c-0.9-0.5-2-0.9-3.3-1.2c-1.3-0.3-3-0.4-5-0.4
				h-18.6v26.5H685c2.3,0,4.1-0.2,5.4-0.5c1.3-0.4,2.3-0.9,3-1.7c0.7-0.8,1.2-1.8,1.5-3c0.3-1.2,0.5-2.7,0.8-4.4h1.9v23.4h-1.9
				c-0.2-1.7-0.5-3.3-0.8-4.5s-0.8-2.3-1.5-3.1c-0.7-0.8-1.7-1.4-3-1.8c-1.3-0.4-3.1-0.6-5.3-0.6h-14.8v22.2c0,1.1,0,2,0,3
				c0,0.9,0.2,1.7,0.5,2.4c0.3,0.7,0.9,1.2,1.7,1.6c0.8,0.4,2,0.6,3.6,0.6h11.3c1.8,0,3.4-0.1,4.8-0.2c1.4-0.1,2.6-0.4,3.7-0.8
				c1.1-0.4,2.1-0.9,3-1.5c0.9-0.6,1.7-1.5,2.6-2.4c0.8-1,1.7-2.1,2.6-3.5c0.9-1.4,1.8-3,2.9-4.8h2L702.9,197.2z"/>
			<path class="st0" d="M781.6,131.9c-1.4,0-2.6,0.2-3.7,0.6c-1,0.4-1.8,1-2.4,1.9c-0.7,1.1-1,3.6-1,7.3v56.6h-1.8l-44.4-54.1v41.3
				c0,4.1,0.5,6.7,1.4,7.8c1.2,1.4,3.2,2,5.9,2h2.3v1.8h-23.5v-1.8h2.3c1.5,0,2.7-0.2,3.7-0.6c1-0.4,1.8-1.1,2.4-2
				c0.4-0.5,0.7-1.4,0.9-2.6c0.2-1.2,0.3-2.7,0.3-4.7v-46.7c-0.3-0.4-0.7-0.9-1.2-1.7c-0.5-0.8-1.1-1.6-2-2.3
				c-0.8-0.8-1.9-1.5-3.2-2.1c-1.3-0.6-2.9-0.9-4.9-0.9v-1.8h16.4l41,50.4v-38.7c0-4.3-0.5-6.8-1.4-7.7c-1.2-1.4-3.2-2.1-5.8-2.1
				h-2.2v-1.8H784v1.8H781.6z"/>
			<path class="st0" d="M840.2,145.8c-0.1-1.2-0.3-2.3-0.5-3.1c-0.2-0.9-0.4-1.6-0.7-2.3c-0.3-0.6-0.6-1.2-0.9-1.6
				c-0.3-0.4-0.7-0.9-1.1-1.3c-1.1-1.1-2.3-2-3.7-2.5c-1.4-0.5-3.2-0.8-5.5-0.8h-9.5v51.4c0,2.1,0.1,3.8,0.4,5.1
				c0.2,1.3,0.6,2.2,1,2.7c1.2,1.4,3.1,2,5.7,2h2.4v1.8h-28.6v-1.8h2.4c1.5,0,2.7-0.2,3.6-0.6c1-0.4,1.8-1.1,2.4-2
				c0.3-0.5,0.6-1.4,0.8-2.6c0.2-1.2,0.3-2.8,0.3-4.7v-51.4h-8c-1.4,0-2.5,0-3.4,0.1c-0.9,0.1-1.8,0.2-2.4,0.3
				c-0.7,0.2-1.3,0.4-1.8,0.6c-0.5,0.3-1,0.6-1.5,1c-2.4,1.8-3.8,5-4.2,9.5h-2.2l0.7-15.7h55.8l0.5,15.7H840.2z"/>
			<path class="st0" d="M895.8,197.2h-51.8v-1.8h2.3c0.3,0,0.7,0,1.1-0.1c0.4-0.1,0.9-0.1,1.4-0.2c0.5-0.1,1-0.3,1.5-0.5
				c0.5-0.2,0.9-0.4,1.2-0.7c0.3-0.3,0.6-0.6,0.9-1c0.2-0.4,0.5-0.9,0.6-1.5c0.2-0.6,0.3-1.4,0.4-2.4c0.1-1,0.1-2.2,0.1-3.7v-43.6
				c0-2.2-0.1-3.9-0.3-5.2c-0.2-1.3-0.5-2.2-0.9-2.6c-1.2-1.4-3.2-2-6-2h-2.3v-1.8h51.8l0.8,14.6h-2c-0.2-1-0.4-1.9-0.6-2.8
				c-0.2-0.9-0.4-1.8-0.7-2.6c-0.3-0.8-0.7-1.6-1.2-2.3c-0.5-0.7-1.2-1.3-2.1-1.8c-0.9-0.5-2-0.9-3.3-1.2c-1.3-0.3-3-0.4-5-0.4
				h-18.6v26.5h14.8c2.3,0,4.1-0.2,5.4-0.5c1.3-0.4,2.3-0.9,3-1.7c0.7-0.8,1.2-1.8,1.5-3c0.3-1.2,0.5-2.7,0.8-4.4h1.9v23.4h-1.9
				c-0.2-1.7-0.5-3.3-0.8-4.5s-0.8-2.3-1.5-3.1c-0.7-0.8-1.7-1.4-3-1.8c-1.3-0.4-3.1-0.6-5.3-0.6h-14.8v22.2c0,1.1,0,2,0,3
				c0,0.9,0.2,1.7,0.5,2.4c0.3,0.7,0.9,1.2,1.7,1.6c0.8,0.4,2,0.6,3.6,0.6h11.3c1.8,0,3.4-0.1,4.8-0.2c1.4-0.1,2.6-0.4,3.7-0.8
				c1.1-0.4,2.1-0.9,3-1.5c0.9-0.6,1.7-1.5,2.6-2.4c0.8-1,1.7-2.1,2.6-3.5c0.9-1.4,1.8-3,2.9-4.8h2L895.8,197.2z"/>
			<path class="st0" d="M951.9,197.2l-22.7-31.4c-0.9,0-1.7,0.1-2.3,0.1c-0.7,0.1-1.3,0.1-1.8,0.1c-0.5,0-1,0-1.5,0
				c-0.5,0-1-0.1-1.6-0.2v19.5c0,4.3,0.5,6.9,1.4,7.8c1.3,1.5,3.2,2.2,5.7,2.2h2.6v1.8H903v-1.8h2.5c2.9,0,4.9-0.9,6-2.7
				c0.7-1.1,1-3.5,1-7.4V142c0-4.1-0.4-6.8-1.3-7.9c-0.7-0.7-1.5-1.2-2.5-1.6c-0.9-0.4-2-0.5-3.3-0.5H903v-1.8h24.4
				c3.6,0,6.7,0.1,9.4,0.4c2.7,0.2,4.8,0.7,6.6,1.2c1.7,0.6,3.3,1.3,4.8,2.3c1.5,1,2.7,2.1,3.8,3.4c1.1,1.3,1.9,2.8,2.6,4.5
				c0.6,1.7,0.9,3.4,0.9,5.3c0,2.1-0.3,4-1,5.9c-0.7,1.8-1.7,3.5-3,5c-1.4,1.5-3.1,2.8-5.1,3.9c-2.1,1.1-4.5,2-7.3,2.6l13.7,19.3
				c1.5,2.1,2.9,3.9,4.2,5.3c1.3,1.4,2.6,2.5,3.9,3.4c1.3,0.9,2.7,1.5,4.2,1.9c1.5,0.4,3.1,0.7,5,0.9v1.8H951.9z M944.3,148.1
				c0-2.1-0.3-4-1-5.8c-0.7-1.7-1.6-3.2-2.9-4.4c-1.3-1.2-2.8-2.2-4.6-2.9c-1.8-0.7-3.8-1.1-6-1.1c-0.9,0-1.9,0.1-3.2,0.2
				c-1.3,0.1-2.8,0.4-4.5,0.6v28h2.8c3.3,0,6.2-0.4,8.6-1.1c2.4-0.7,4.4-1.7,6-3c1.6-1.3,2.8-2.8,3.6-4.6
				C943.9,152.1,944.3,150.2,944.3,148.1z"/>
			<path class="st0" d="M1017.4,180.1c0,2.5-0.5,5-1.6,7.2c-1,2.3-2.5,4.3-4.4,6c-1.9,1.7-4.1,3-6.7,4c-2.6,1-5.4,1.5-8.5,1.5
				c-2.3,0-4.4-0.2-6.2-0.6c-1.9-0.4-3.6-0.8-5.1-1.3c-1.5-0.5-2.8-0.9-3.9-1.3c-1.1-0.4-2.1-0.6-2.9-0.6c-0.8,0-1.4,0.3-1.9,0.8
				c-0.5,0.6-0.9,1.6-1.1,3h-1.8v-23.1h1.8c0.4,3.5,1.3,6.4,2.5,8.8s2.8,4.4,4.6,5.9c1.8,1.5,3.8,2.6,6,3.3c2.2,0.7,4.5,1,6.9,1
				c2,0,3.9-0.3,5.6-0.9c1.7-0.6,3.1-1.4,4.2-2.4c1.2-1,2-2.2,2.7-3.5c0.6-1.3,0.9-2.7,0.9-4.2c0-1.7-0.3-3.1-0.9-4.4
				c-0.6-1.3-1.5-2.5-2.8-3.6c-1.3-1.2-3-2.4-5-3.7c-2.1-1.3-4.6-2.7-7.5-4.4c-4-2.2-7.3-4.3-9.8-6c-2.5-1.8-4.5-3.5-6-5.1
				c-1.5-1.6-2.4-3.3-3-5c-0.5-1.7-0.8-3.5-0.8-5.6c0-2.4,0.5-4.6,1.4-6.8c0.9-2.1,2.2-4,3.9-5.6c1.7-1.6,3.8-2.9,6.2-3.9
				c2.4-1,5.1-1.4,8.1-1.4c1.9,0,3.7,0.2,5.3,0.6c1.6,0.4,3,0.8,4.3,1.3c1.3,0.5,2.4,0.9,3.3,1.3c1,0.4,1.8,0.6,2.6,0.6
				c0.8,0,1.4-0.3,1.9-0.8c0.5-0.5,0.9-1.5,1.3-2.9h1.8v23.3h-1.8c-0.3-3.2-1-6-2.1-8.4c-1.1-2.4-2.5-4.4-4.1-6.1
				c-1.7-1.6-3.6-2.9-5.7-3.7c-2.1-0.8-4.4-1.2-6.7-1.2c-1.6,0-3.1,0.3-4.6,0.8c-1.4,0.6-2.7,1.3-3.7,2.3c-1.1,0.9-1.9,2-2.5,3.3
				c-0.6,1.3-0.9,2.6-0.9,4c0,1.3,0.2,2.5,0.7,3.6c0.5,1.1,1.4,2.2,2.6,3.4c1.3,1.2,3,2.4,5.1,3.8c2.2,1.4,4.9,2.9,8.2,4.7
				c3.2,1.7,5.9,3.2,7.9,4.5c2.1,1.3,3.7,2.4,4.9,3.3c2.3,1.7,4.1,3.7,5.3,6.2C1016.8,174.7,1017.4,177.3,1017.4,180.1z"/>
		</g>
		<path class="st1" d="M630.3,235.5c0,2.2-0.2,4.3-0.7,6.4c-0.5,2-1.2,3.9-2.1,5.6c-0.9,1.7-2,3.3-3.3,4.7c-1.3,1.4-2.8,2.6-4.4,3.6
			c-1.6,1-3.3,1.8-5.2,2.3c-1.9,0.5-3.8,0.8-5.9,0.8c-3,0-5.8-0.6-8.4-1.7c-2.6-1.1-4.9-2.7-6.8-4.7c-2-2-3.5-4.5-4.6-7.3
			c-1.1-2.9-1.7-6-1.7-9.5c0-3.3,0.6-6.3,1.7-9.2c1.1-2.8,2.7-5.2,4.7-7.3c2-2,4.3-3.6,7-4.8c2.7-1.1,5.6-1.7,8.8-1.7
			c1.9,0,3.8,0.3,5.6,0.8c1.8,0.5,3.5,1.3,5,2.2c1.6,1,3,2.1,4.3,3.5c1.3,1.4,2.4,2.9,3.3,4.6c0.9,1.7,1.6,3.5,2.1,5.5
			C630.1,231.2,630.3,233.2,630.3,235.5z M623,236.3c0-3.4-0.3-6.4-0.8-9c-0.6-2.6-1.5-4.9-2.7-6.7c-1.2-1.8-2.7-3.2-4.5-4.2
			c-1.8-1-3.9-1.5-6.4-1.5c-2.2,0-4.2,0.5-5.9,1.4c-1.7,0.9-3.2,2.3-4.4,4.1c-1.2,1.8-2.1,3.9-2.7,6.4c-0.6,2.5-0.9,5.4-0.9,8.5
			c0,3.1,0.3,6,0.9,8.6c0.6,2.6,1.5,4.8,2.7,6.7c1.2,1.9,2.6,3.3,4.4,4.3c1.7,1,3.8,1.6,6,1.6c2.1,0,4-0.4,5.8-1.2
			c1.8-0.8,3.3-2,4.5-3.7c1.3-1.7,2.3-3.8,3-6.3C622.6,242.8,623,239.8,623,236.3z"/>
		<path class="st1" d="M669,223.3c-0.4-1.3-0.8-2.5-1.3-3.4c-0.5-0.9-1.1-1.7-1.8-2.2c-0.7-0.6-1.6-1-2.7-1.2
			c-1.1-0.2-2.4-0.4-4-0.4h-9.8v17.3h8c1,0,1.8-0.1,2.4-0.3c0.7-0.2,1.2-0.5,1.7-1c0.4-0.5,0.8-1.1,1.1-1.8s0.5-1.7,0.6-2.8h1.2
			v14.9h-1.2c0-1-0.1-2-0.3-2.7c-0.2-0.8-0.5-1.4-0.9-1.9c-0.4-0.5-1-0.9-1.8-1.2c-0.7-0.3-1.7-0.4-2.8-0.4h-8V250
			c0,1.4,0,2.5,0.1,3.3c0.1,0.8,0.3,1.3,0.6,1.6c0.4,0.6,1,1,1.8,1.3c0.7,0.3,1.5,0.4,2.3,0.4h1.6v1.2h-18.9v-1.2h1.6
			c1.7,0,3-0.5,3.9-1.6c0.5-0.7,0.8-2.4,0.8-5v-28.5c0-0.8,0-1.5,0-2.1c0-0.6-0.1-1.1-0.2-1.5c-0.1-0.4-0.2-0.7-0.3-1
			c-0.1-0.3-0.3-0.5-0.4-0.6c-0.5-0.5-1-0.8-1.7-1.1c-0.7-0.3-1.4-0.4-2.1-0.4h-1.6v-1.2h32.8l0.5,9.6H669z"/>
		<path class="st1" d="M717.1,256.8v-1.2c1.5,0,2.6-0.2,3.3-0.7c0.7-0.4,1-1,1.1-1.6c0.1-0.7,0-1.4-0.3-2.3c-0.3-0.9-0.6-1.7-1-2.6
			l-2.6-6.4h-17.1l-3,7c-0.4,1-0.7,1.9-0.9,2.6c-0.2,0.8-0.2,1.4,0,2c0.2,0.5,0.7,1,1.5,1.3c0.8,0.3,1.9,0.5,3.5,0.7v1.2h-14v-1.2
			c0.9-0.1,1.7-0.3,2.4-0.6c0.7-0.3,1.3-0.8,1.9-1.4c0.6-0.6,1.1-1.4,1.5-2.3c0.5-0.9,1-2,1.5-3.2l15.5-36.4h1.2l15.3,36.7
			c0.7,1.5,1.2,2.8,1.8,3.7c0.5,0.9,1.1,1.6,1.6,2.1c0.6,0.5,1.2,0.8,1.8,1c0.7,0.2,1.4,0.3,2.4,0.4v1.2H717.1z M709.3,221.7
			l-7.7,17.9h15.2L709.3,221.7z"/>
		<path class="st1" d="M777.3,256.8v-1.2h1.5c1,0,1.8-0.1,2.5-0.4c0.6-0.3,1.1-0.7,1.6-1.3c0.5-0.7,0.7-2.3,0.7-4.8v-29.4
			l-17.1,37.1h-1.1l-17-37.1v29.4c0,2.8,0.3,4.5,0.9,5.1c0.7,0.9,2,1.3,3.8,1.3h1.5v1.2h-15.3v-1.2h1.5c0.9,0,1.7-0.1,2.3-0.4
			c0.6-0.3,1.2-0.7,1.6-1.3c0.2-0.3,0.3-0.9,0.5-1.7c0.1-0.8,0.2-1.8,0.2-3.1v-28.8c0-1.4-0.1-2.5-0.3-3.4c-0.2-0.8-0.6-1.5-1.1-1.9
			c-0.5-0.4-1.1-0.7-1.7-0.9c-0.7-0.2-1.7-0.3-3-0.3v-1.2h12.4l16,34.5l15.8-34.5h12.5v1.2h-1.5c-1.8,0-3.2,0.6-4,1.7
			c-0.2,0.4-0.4,1-0.5,1.8c-0.1,0.8-0.2,1.8-0.2,3.1v28.8c0,2.7,0.3,4.4,0.9,5.1c0.8,0.9,2,1.3,3.8,1.3h1.5v1.2H777.3z"/>
		<path class="st1" d="M838.9,256.8h-34v-1.2h1.5c0.2,0,0.4,0,0.7,0s0.6-0.1,0.9-0.2c0.3-0.1,0.7-0.2,1-0.3c0.3-0.1,0.6-0.3,0.8-0.5
			c0.2-0.2,0.4-0.4,0.6-0.7c0.2-0.2,0.3-0.6,0.4-1c0.1-0.4,0.2-0.9,0.2-1.6c0.1-0.6,0.1-1.4,0.1-2.4v-28.6c0-1.4-0.1-2.6-0.2-3.4
			s-0.4-1.4-0.6-1.7c-0.8-0.9-2.1-1.3-3.9-1.3h-1.5v-1.2h34l0.5,9.6h-1.3c-0.2-0.6-0.3-1.2-0.4-1.8c-0.1-0.6-0.3-1.2-0.5-1.7
			c-0.2-0.5-0.5-1-0.8-1.5c-0.3-0.4-0.8-0.8-1.4-1.2c-0.6-0.3-1.3-0.6-2.2-0.8c-0.9-0.2-2-0.3-3.3-0.3h-12.2v17.4h9.7
			c1.5,0,2.7-0.1,3.5-0.4c0.9-0.2,1.5-0.6,2-1.1c0.5-0.5,0.8-1.2,1-2c0.2-0.8,0.4-1.8,0.5-2.9h1.2v15.4h-1.2c-0.2-1.1-0.3-2.1-0.5-3
			c-0.2-0.8-0.5-1.5-1-2c-0.5-0.5-1.1-0.9-2-1.2c-0.8-0.2-2-0.4-3.5-0.4h-9.7v14.6c0,0.7,0,1.3,0,2c0,0.6,0.1,1.1,0.3,1.5
			c0.2,0.4,0.6,0.8,1.1,1c0.5,0.2,1.3,0.4,2.3,0.4h7.5c1.2,0,2.2,0,3.2-0.1c0.9-0.1,1.7-0.3,2.5-0.5c0.7-0.2,1.4-0.6,2-1
			c0.6-0.4,1.1-1,1.7-1.6c0.6-0.6,1.1-1.4,1.7-2.3c0.6-0.9,1.2-2,1.9-3.2h1.3L838.9,256.8z"/>
		<path class="st1" d="M883.7,256.8l-14.9-20.6c-0.6,0-1.1,0-1.5,0.1c-0.4,0-0.8,0-1.2,0c-0.3,0-0.6,0-1,0c-0.3,0-0.7,0-1-0.1V249
			c0,2.8,0.3,4.5,0.9,5.1c0.8,1,2.1,1.5,3.7,1.5h1.7v1.2h-18.9v-1.2h1.7c1.9,0,3.2-0.6,4-1.8c0.4-0.7,0.7-2.3,0.7-4.8v-28.5
			c0-2.7-0.3-4.4-0.8-5.2c-0.5-0.5-1-0.8-1.6-1c-0.6-0.2-1.3-0.4-2.2-0.4h-1.7v-1.2h16c2.4,0,4.4,0.1,6.2,0.2
			c1.7,0.2,3.2,0.4,4.3,0.8c1.1,0.4,2.2,0.9,3.1,1.5c1,0.6,1.8,1.4,2.5,2.3c0.7,0.9,1.3,1.8,1.7,2.9c0.4,1.1,0.6,2.3,0.6,3.5
			c0,1.4-0.2,2.7-0.7,3.9c-0.4,1.2-1.1,2.3-2,3.3c-0.9,1-2,1.8-3.4,2.6c-1.4,0.7-3,1.3-4.8,1.7l9,12.7c1,1.4,1.9,2.5,2.8,3.5
			c0.8,0.9,1.7,1.7,2.6,2.2c0.9,0.6,1.8,1,2.7,1.3c1,0.3,2,0.5,3.3,0.6v1.2H883.7z M878.6,224.5c0-1.4-0.2-2.6-0.7-3.8
			c-0.4-1.1-1.1-2.1-1.9-2.9c-0.8-0.8-1.8-1.4-3-1.9c-1.2-0.5-2.5-0.7-3.9-0.7c-0.6,0-1.3,0-2.1,0.1c-0.9,0.1-1.8,0.2-3,0.4v18.4
			h1.9c2.2,0,4.1-0.2,5.6-0.7c1.6-0.5,2.9-1.1,4-2c1.1-0.9,1.8-1.9,2.4-3C878.4,227.1,878.6,225.9,878.6,224.5z"/>
		<path class="st1" d="M902.3,256.8v-1.2h1.6c0.9,0,1.7-0.1,2.3-0.4c0.6-0.2,1.2-0.7,1.6-1.2c0.5-0.6,0.8-2.3,0.8-5v-28.5
			c0-0.8,0-1.4,0-1.9s0-1-0.1-1.4c0-0.4-0.1-0.7-0.2-1c-0.1-0.3-0.2-0.5-0.4-0.7c-0.4-0.5-1-0.9-1.7-1.2c-0.7-0.3-1.5-0.4-2.2-0.4
			h-1.6v-1.2h18.9v1.2h-1.6c-1.7,0-3,0.5-3.9,1.6c-0.2,0.4-0.4,1-0.6,1.8c-0.2,0.8-0.2,1.9-0.2,3.2V249c0,1.4,0.1,2.5,0.2,3.3
			c0.1,0.8,0.3,1.4,0.6,1.8c0.1,0.2,0.3,0.4,0.6,0.5c0.3,0.2,0.6,0.3,1,0.5c0.4,0.1,0.8,0.3,1.2,0.4c0.4,0.1,0.8,0.1,1.2,0.1h1.6
			v1.2H902.3z"/>
		<path class="st1" d="M967.7,246.4c-1.1,1.9-2.3,3.6-3.5,5c-1.3,1.4-2.6,2.6-4.1,3.5c-1.5,0.9-3.1,1.6-4.9,2.1
			c-1.8,0.5-3.7,0.7-5.8,0.7c-2.3,0-4.3-0.3-6.3-0.8c-1.9-0.6-3.7-1.3-5.3-2.3c-1.6-1-3-2.2-4.2-3.6c-1.2-1.4-2.3-2.9-3.1-4.6
			c-0.8-1.7-1.5-3.4-1.9-5.3c-0.4-1.9-0.7-3.8-0.7-5.8c0-3.2,0.5-6.3,1.6-9.1c1.1-2.9,2.6-5.4,4.6-7.6c2-2.2,4.3-3.9,7.1-5.2
			c2.8-1.3,5.9-1.9,9.2-1.9c1.7,0,3.1,0.2,4.4,0.5c1.3,0.3,2.4,0.7,3.3,1.1c0.9,0.4,1.7,0.7,2.3,1.1c0.6,0.3,1.1,0.5,1.4,0.5
			c0.6,0,1.1-0.3,1.6-0.8c0.5-0.5,0.9-1.3,1.1-2.3h1.2l1,15h-1c-0.7-2.3-1.5-4.2-2.5-5.8c-1-1.6-2.1-2.9-3.3-3.9
			c-1.2-1-2.6-1.8-4.1-2.2c-1.5-0.5-3.1-0.7-4.8-0.7c-2.3,0-4.4,0.4-6.3,1.3c-1.9,0.9-3.6,2.2-4.9,4c-1.4,1.8-2.5,4-3.2,6.7
			c-0.8,2.7-1.2,5.9-1.2,9.6c0,3.1,0.4,5.9,1.2,8.4c0.8,2.4,1.9,4.5,3.4,6.1c1.5,1.6,3.2,2.9,5.2,3.7c2,0.8,4.3,1.3,6.8,1.3
			c1.5,0,2.8-0.1,4-0.4c1.2-0.3,2.4-0.7,3.6-1.4c1.2-0.7,2.3-1.6,3.5-2.8c1.2-1.2,2.4-2.7,3.7-4.5L967.7,246.4z"/>
		<path class="st1" d="M999,256.8v-1.2c1.5,0,2.6-0.2,3.3-0.7c0.7-0.4,1-1,1.1-1.6c0.1-0.7,0-1.4-0.3-2.3c-0.3-0.9-0.6-1.7-1-2.6
			l-2.6-6.4h-17.1l-3,7c-0.4,1-0.7,1.9-0.9,2.6c-0.2,0.8-0.2,1.4,0,2c0.2,0.5,0.7,1,1.5,1.3c0.8,0.3,1.9,0.5,3.5,0.7v1.2h-14v-1.2
			c0.9-0.1,1.7-0.3,2.4-0.6c0.7-0.3,1.3-0.8,1.9-1.4c0.6-0.6,1.1-1.4,1.5-2.3c0.5-0.9,1-2,1.5-3.2l15.5-36.4h1.2l15.3,36.7
			c0.7,1.5,1.2,2.8,1.8,3.7c0.5,0.9,1.1,1.6,1.6,2.1c0.6,0.5,1.2,0.8,1.8,1c0.7,0.2,1.4,0.3,2.4,0.4v1.2H999z M991.2,221.7
			l-7.7,17.9h15.2L991.2,221.7z"/>
		<path class="st0" d="M221,189.7c-1.8-5.2-4.6-9.8-8.3-14c-3.8-4.2-8.5-7.8-14.3-10.9c-5.8-3.1-12.6-5.4-20.6-6.9
			c6.2-1.9,11.5-4.3,16.1-7.4c4.6-3,8.4-6.5,11.4-10.4c3-3.9,5.3-8.1,6.9-12.7c1.5-4.6,2.3-9.3,2.3-14.2c0-4.1-0.4-8.2-1.3-12.4
			c-0.9-4.2-2.5-8.3-4.8-12.3c-2.3-4-5.5-7.7-9.6-11.3c-4.1-3.6-9.3-6.7-15.6-9.4c-6.3-2.7-13.9-6.1-22.6-7.6
			c-8.8-1.5-19.1-3.6-31.1-3.6H78.9c-4,19-3.4,41.4,21.2,105.8c2.7-0.6,6.1-0.3,10.2-0.5c4.3-0.2,9.6,0,15.9,0
			c10.2,0,19.3,1.3,27.1,3.6c7.8,2.3,14.4,5.5,19.7,9.6c5.3,4.1,9.3,9,12.1,14.6c2.7,5.6,4.1,11.8,4.1,18.6c0,6.2-1.2,11.8-3.6,17
			c-2.4,5.2-5.9,9.6-10.6,13.4c-4.7,3.8-10.4,6.7-17.3,8.8s-14.8,3.4-23.7,3.1c-6.9-0.2-13.3-1.2-16.9-2.1c-2.7-0.7-6.2-2.2-6.2-2.2
			c-0.7,4.2-2.3,8.3-3.5,11.3l30.9,0.7c8.6,0,14.8,0.4,22,0.2c6.8-0.2,12.8-0.6,18.1-1.8c5.3-1.2,10-2.3,14-4.1
			c4-1.8,7.6-3.8,10.8-6.3c3.3-2.6,6.2-5.4,8.8-8.6c2.6-3.2,4.7-6.6,6.4-10.2c1.7-3.6,3-7.2,3.9-10.8c0.9-3.7,1.3-7.3,1.3-10.9
			C223.7,200.3,222.8,194.8,221,189.7z M170.4,141.5c-4.4,3.4-10.1,6.1-17.1,7.9c-7,1.8-15.3,2.8-25.2,2.8c-6,0-10.4-0.1-15-0.4
			c-4.6-0.2-8.9-0.8-11.9-1.7V72.3c3-1.1,7.4-1.9,11.9-2.3c4.5-0.4,8.8-0.7,13.9-0.7c9.5,0,17.6,1.1,24.7,3.4
			c7.1,2.3,12.8,5.4,17.6,9.2c4.7,3.9,8.2,8.4,10.5,13.6c2.3,5.2,3.4,10.6,3.4,16.4c0,6.4-1,12-3.1,17
			C178.1,133.8,174.8,138,170.4,141.5z"/>
		<g>
			<path class="st0" d="M1019.7,64.5l1.4-0.1c0.1,0.6,0.2,1.1,0.5,1.4s0.6,0.7,1.2,0.9c0.5,0.2,1.1,0.3,1.8,0.3
				c0.6,0,1.1-0.1,1.5-0.3c0.4-0.2,0.8-0.4,1-0.7c0.2-0.3,0.3-0.6,0.3-1c0-0.4-0.1-0.7-0.3-1c-0.2-0.3-0.6-0.5-1-0.7
				c-0.3-0.1-1-0.3-2.1-0.6c-1.1-0.3-1.8-0.5-2.2-0.7c-0.6-0.3-1-0.6-1.2-1.1c-0.3-0.4-0.4-0.9-0.4-1.4c0-0.6,0.2-1.1,0.5-1.6
				c0.3-0.5,0.8-0.9,1.5-1.2c0.6-0.3,1.3-0.4,2.1-0.4c0.9,0,1.6,0.1,2.3,0.4c0.7,0.3,1.2,0.7,1.5,1.2c0.4,0.5,0.5,1.1,0.6,1.8
				l-1.5,0.1c-0.1-0.7-0.3-1.3-0.8-1.7c-0.5-0.4-1.1-0.6-2-0.6c-0.9,0-1.6,0.2-2,0.5s-0.6,0.7-0.6,1.2c0,0.4,0.2,0.8,0.5,1
				c0.3,0.3,1.1,0.5,2.3,0.8s2.1,0.5,2.6,0.7c0.7,0.3,1.2,0.7,1.5,1.2s0.5,1,0.5,1.6c0,0.6-0.2,1.2-0.5,1.7c-0.4,0.5-0.9,1-1.5,1.3
				c-0.7,0.3-1.4,0.5-2.2,0.5c-1,0-1.9-0.2-2.6-0.5c-0.7-0.3-1.3-0.8-1.7-1.4S1019.7,65.3,1019.7,64.5z"/>
			<path class="st0" d="M1030.3,68.3V56.7h2.3l2.7,8.2c0.3,0.8,0.4,1.3,0.6,1.7c0.1-0.4,0.3-1,0.6-1.9l2.8-8.1h2.1v11.6h-1.5v-9.7
				l-3.4,9.7h-1.4l-3.3-9.9v9.9H1030.3z"/>
		</g>
		<g>
			<path class="st0" d="M562.7,56.5c1.3,0,2.6,0.3,3.8,1c1.2,0.7,2.2,1.6,2.9,2.9c0.7,1.2,1,2.5,1,3.9c0,1.3-0.3,2.6-1,3.8
				c-0.7,1.2-1.6,2.2-2.9,2.9c-1.2,0.7-2.5,1-3.9,1s-2.6-0.3-3.9-1c-1.2-0.7-2.2-1.6-2.9-2.9c-0.7-1.2-1-2.5-1-3.8
				c0-1.3,0.3-2.6,1-3.9c0.7-1.2,1.7-2.2,2.9-2.9C560.2,56.9,561.4,56.5,562.7,56.5z M562.7,57.8c-1.1,0-2.1,0.3-3.2,0.8
				c-1,0.6-1.8,1.4-2.4,2.4c-0.6,1-0.9,2.1-0.9,3.2c0,1.1,0.3,2.2,0.9,3.2c0.6,1,1.4,1.8,2.4,2.4c1,0.6,2.1,0.9,3.2,0.9
				s2.2-0.3,3.2-0.9c1-0.6,1.8-1.4,2.4-2.4c0.6-1,0.9-2.1,0.9-3.2c0-1.1-0.3-2.2-0.9-3.2c-0.6-1-1.4-1.8-2.4-2.4
				C564.9,58.1,563.8,57.8,562.7,57.8z M559.3,68.6v-8.3h2.9c1,0,1.7,0.1,2.1,0.2c0.4,0.2,0.8,0.4,1,0.8c0.3,0.4,0.4,0.8,0.4,1.2
				c0,0.6-0.2,1.1-0.7,1.6c-0.4,0.5-1,0.7-1.7,0.8c0.3,0.1,0.5,0.3,0.7,0.4c0.3,0.3,0.7,0.9,1.2,1.7l1,1.6h-1.6l-0.7-1.3
				c-0.6-1-1-1.7-1.4-1.9c-0.2-0.2-0.6-0.3-1.1-0.3h-0.8v3.5H559.3z M560.7,63.9h1.6c0.8,0,1.3-0.1,1.6-0.3c0.3-0.2,0.4-0.5,0.4-0.9
				c0-0.2-0.1-0.5-0.2-0.7c-0.1-0.2-0.3-0.3-0.6-0.4c-0.2-0.1-0.7-0.1-1.3-0.1h-1.5V63.9z"/>
		</g>
	</g>
</g>
<g id="Layer_2">
</g>
</svg>
