<svg id="Layer_1" data-name="Layer 1" xmlns="http://www.w3.org/2000/svg" viewBox="0 0 288 144.41"><defs><style>.cls-1{fill:#00965f;}.cls-2{fill:#1b365d;}</style></defs><title>Artboard 1</title><path class="cls-1" d="M13.34,69.9c-.09,0-.2,0-.2-.21V62.34c0-1,.32-1.64,1.16-1.79a5.62,5.62,0,0,1,.91-.09c.38,0,.57,0,.57-.29s-.21-.29-.66-.29c-1.23,0-3.21.09-4,.09s-2.84-.09-4.54-.09c-.45,0-.66,0-.66.29s.2.29.54.29a6.5,6.5,0,0,1,1.23.09c1,.21,1.29.73,1.36,1.79s0,1.89,0,6.68v5.55c0,2.89,0,5.36-.16,6.71-.12.91-.29,1.61-.91,1.79a5.12,5.12,0,0,1-1.13.12c-.38,0-.5.09-.5.25s.21.32.63.32c1.27,0,3.25-.09,4-.09s2.87.09,4.91.09c.38,0,.63-.09.63-.32s-.16-.25-.5-.25a13.22,13.22,0,0,1-1.61-.12c-.95-.12-1.14-.82-1.23-1.79v-9.5a.16.16,0,0,1,.11-.2H25.41a.18.18,0,0,1,.2.2v2.77c0,2.89,0,5.36-.16,6.71-.12.91-.29,1.61-.91,1.79a5.12,5.12,0,0,1-1.14.12c-.37,0-.5.09-.5.25s.21.32.66.32c1.23,0,3.21-.09,3.95-.09s2.88.09,4.91.09c.37,0,.63-.09.63-.32s-.16-.25-.5-.25a13.21,13.21,0,0,1-1.61-.12c-.95-.12-1.12-.82-1.23-1.79-.16-1.36-.16-3.84-.16-6.75V62.34c0-1,.32-1.64,1.16-1.79a5.62,5.62,0,0,1,.91-.09c.37,0,.57,0,.57-.29s-.21-.29-.66-.29c-1.23,0-3.21.09-4,.09S24.71,59.9,23,59.9c-.45,0-.66,0-.66.29s.2.29.54.29a6.5,6.5,0,0,1,1.23.09c1,.21,1.29.73,1.36,1.79s0,1.89,0,6.68v.66c0,.16-.09.21-.2.21Z"/><path class="cls-1" d="M41.44,75.91c0,2.46,0,4.57-.12,5.7-.09.79-.25,1.29-.82,1.41a4.09,4.09,0,0,1-1,.09c-.34,0-.45.16-.45.29s.2.29.54.29h6.71c1.36,0,3,.09,5.11.09,1,0,1.29,0,1.48-.7a18.12,18.12,0,0,0,.37-3c0-.29,0-.62-.25-.62s-.25.12-.32.41c-.2,1.11-.5,1.66-1.2,2a7.48,7.48,0,0,1-2.61.34c-2.84,0-3.68-.41-3.75-2.23V73.88c0-.16,0-.29.16-.29.7,0,3.84,0,4.34.12,1,.09,1.39.5,1.54,1s0,.7.09,1,0,.21.25.21.29-.37.29-.61a10.06,10.06,0,0,1,.12-1.79c.16-1.36.21-1.79.21-1.95s-.09-.29-.21-.29-.21.16-.45.34a2.71,2.71,0,0,1-1.32.41c-.66.07-4.21,0-4.86,0-.16,0-.2-.12-.2-.29V65.18c0-.16,0-.25.2-.25.57,0,3.88,0,4.34.12,1.39.12,1.61.5,1.79,1a2.52,2.52,0,0,1,.2,1c0,.21,0,.34.21.34s.29-.32.32-.45.12-1.48.16-1.79a11.79,11.79,0,0,1,.21-1.79c0-.12,0-.25-.2-.25a3.23,3.23,0,0,0-.45.12c-.21,0-.66.12-1.16.16s-6.68,0-7.55,0h-4c-.41,0-.63,0-.63.25s.2.29.46.29a5.13,5.13,0,0,1,1.11.09c.87.25,1.12.54,1.2,1.45s0,1.61,0,5.68v4.73Z"/><path class="cls-1" d="M70.17,77a.27.27,0,0,1,.29.2L72.6,82.5a.43.43,0,0,1-.18.58l-.07,0c-.29,0-.34.12-.34.29s.32.2.82.21h5.36c1,0,1.2,0,1.2-.29S79.26,83,79,83A6.71,6.71,0,0,1,78,83c-.5-.12-1.29-.46-2.36-2.88-1.79-4.05-6.39-15-7.14-16.5-.29-.61-.41-.86-.82-.86s-.5.32-.82,1.07L59.6,80.74c-.57,1.36-1,2.18-2.3,2.36h-.82a.28.28,0,0,0-.32.29c0,.16.16.29.5.29,1.45,0,2.93-.09,3.21-.09.88,0,2.18.09,3.09.09.29,0,.45,0,.45-.29s0-.29-.41-.29h-.41c-.86,0-1.11-.29-1.11-.75a4.86,4.86,0,0,1,.41-1.64l1.48-3.57c0-.16.09-.2.25-.2Zm-6-1.46c-.09,0-.16,0-.09-.2l2.62-6.77c0-.09,0-.25.16-.25s.09.16.12.25l2.61,6.8c0,.09,0,.16-.12.16Z"/><path class="cls-1" d="M88.94,71.2V65.52c0-.86.29-1.32,1-1.45A6.18,6.18,0,0,1,91,64c.34,0,.5-.09.5-.29s-.2-.25-.61-.25h-7.8c-.41,0-.61,0-.61.25s.16.29.46.29a3.71,3.71,0,0,1,.91.09c.88.25,1.14.54,1.2,1.45s0,1.61,0,5.68v4.73c0,2.46,0,4.57-.12,5.7-.09.79-.25,1.29-.82,1.41a4.09,4.09,0,0,1-1,.09c-.34,0-.45.16-.45.29s.2.29.54.29h7.18c1.38,0,3,.09,5,.09,1.45,0,1.57-.12,1.79-.73A20.45,20.45,0,0,0,97.62,80c0-.32,0-.61-.25-.61s-.29.16-.32.41a3.23,3.23,0,0,1-.7,1.61c-.7.73-1.79.75-3.25.75-2.14,0-3.21-.16-3.68-.57s-.61-2.2-.61-5.64V71.2Z"/><path class="cls-1" d="M107.66,75.93c0,2.46,0,4.57-.12,5.7-.09.79-.25,1.29-.82,1.41a3.91,3.91,0,0,1-1,.09c-.34,0-.45.16-.45.29s.2.29.54.29c1.11,0,3-.09,3.57-.09s2.64.09,4.46.09c.32,0,.54-.09.54-.29s-.12-.29-.45-.29a10.41,10.41,0,0,1-1.41-.09c-.82-.12-1-.62-1.07-1.38-.07-1.18-.07-3.29-.07-5.73V65.09H115c2.48,0,3.21.86,3.27,1.54v.29c0,.41.09.54.32.54s.21-.16.25-.45V63.75c0-.55,0-.57-.21-.57l-.77.12a11.48,11.48,0,0,1-1.89.12H104.69a25.86,25.86,0,0,1-2.77-.12c-.7-.11-1-.32-1.2-.32s-.25.16-.32.5-.61,2.82-.61,3.25,0,.45.25.45.25-.12.32-.34a3.16,3.16,0,0,1,.48-.91c.41-.61,1.07-.79,2.68-.82l4.13-.09V75.93Z"/><path class="cls-1" d="M130.67,72.16a.16.16,0,0,1-.18-.25V65.45c0-.86.29-1.32,1-1.45a4.07,4.07,0,0,1,.79-.09c.34,0,.5-.09.5-.29s-.2-.25-.57-.25H124.5c-.37,0-.61,0-.61.25s.2.29.46.29a5.13,5.13,0,0,1,1.11.09c.87.25,1.14.54,1.2,1.45s0,1.61,0,5.68v4.73c0,2.46,0,4.57-.12,5.7-.09.79-.25,1.29-.82,1.41a4.09,4.09,0,0,1-1,.09c-.34,0-.45.16-.45.29s.2.29.54.29c1.11,0,2.93-.09,3.57-.09s2.71.09,4.5.09c.34,0,.57-.09.57-.29s-.12-.29-.45-.29A10.41,10.41,0,0,1,131.6,83c-.82-.12-1-.62-1.07-1.39-.12-1.16-.16-3.21-.16-5.68v-2c0-.12.09-.16.2-.16H141a.16.16,0,0,1,.16.16V76c0,2.46,0,4.5-.12,5.64-.09.79-.25,1.29-.82,1.41a4.2,4.2,0,0,1-1,.09c-.32,0-.45.16-.45.29s.21.29.61.29c1.07,0,3-.09,3.57-.09s2.59.09,4.37.09c.34,0,.57-.09.57-.29s-.16-.29-.45-.29a10.07,10.07,0,0,1-1.41-.09c-.86-.12-1-.62-1.11-1.39-.12-1.16-.12-3.27-.12-5.73V65.52c0-.86.29-1.32,1-1.45a4.68,4.68,0,0,1,.82-.09c.32,0,.5-.09.5-.29s-.2-.25-.61-.25h-7.73c-.41,0-.61,0-.61.25s.16.29.46.29a5,5,0,0,1,1.07.09c.87.25,1.12.54,1.2,1.45s0,1.79,0,5.89v.5c0,.16-.09.2-.16.2Z"/><path class="cls-2" d="M157.59,74.56c0,3.05,0,5.54-.16,6.87-.09.91-.29,1.45-.91,1.57a5.12,5.12,0,0,1-1.12.12c-.37,0-.5.09-.5.25s.21.32.62.32c1.27,0,3.25-.09,4-.09s2.84.09,4.91.09c.34,0,.61-.09.61-.32s-.16-.25-.5-.25a13.21,13.21,0,0,1-1.61-.12c-.95-.12-1.16-.7-1.27-1.54-.12-1.36-.12-3.84-.12-6.89V62.34c0-1,.32-1.64,1.16-1.79a5.36,5.36,0,0,1,.95-.09c.32,0,.5,0,.5-.32s-.25-.25-.66-.25c-1.2,0-3.05.09-3.84.09s-2.89-.09-4.09-.09c-.5,0-.75,0-.75.25s.2.32.5.32a4.46,4.46,0,0,1,1.14.12c.7.16,1,.7,1.07,1.79s0,1.89,0,6.68v5.55Z"/><path class="cls-2" d="M174.83,69.11h.09c.54.46,3.46,3.71,6.48,6.62s6.36,6.11,8.09,7.71a1.66,1.66,0,0,0,1.14.57c.21,0,.45-.25.45-.86l.32-16.89c0-1.52.25-2,1-2.21a2.8,2.8,0,0,1,.86-.09c.32,0,.48-.12.48-.29s-.25-.25-.62-.25h-6.29c-.41,0-.7,0-.7.25s.09.29.45.29a4.64,4.64,0,0,1,1.45.16c.66.25.91.73.95,2.36l.29,11.91h-.12c-.41-.37-4.09-4.16-6-6-4-3.95-8.18-8.2-8.54-8.54s-.73-.86-1.16-.86-.46.37-.46.91l-.25,15.87c0,2.34-.12,3.05-.86,3.25a5.7,5.7,0,0,1-1.27.12c-.25,0-.45.12-.45.29s.25.29.62.29c1.41,0,2.73-.09,3-.09s1.79.09,3.57.09c.37,0,.62,0,.62-.29s-.16-.29-.46-.29a4.71,4.71,0,0,1-1.45-.2c-.54-.2-.87-.82-.95-2.89l-.32-10.93Z"/><path class="cls-2" d="M206.48,75.93c0,2.46,0,4.57-.12,5.7-.09.79-.25,1.29-.82,1.41a3.91,3.91,0,0,1-1,.09c-.34,0-.45.16-.45.29s.2.29.54.29c1.11,0,3-.09,3.57-.09s2.64.09,4.46.09c.32,0,.54-.09.54-.29s-.12-.29-.45-.29a10.41,10.41,0,0,1-1.41-.09c-.82-.12-1-.62-1.07-1.38-.12-1.16-.16-3.27-.16-5.73V65.09h3.57c2.48,0,3.21.86,3.27,1.54v.29c0,.41.09.54.32.54s.21-.16.25-.45V63.75c0-.55,0-.57-.21-.57l-.77.12a11.46,11.46,0,0,1-1.89.12H203.42a25.86,25.86,0,0,1-2.77-.12c-.7-.11-1-.32-1.2-.32s-.25.16-.32.5-.61,2.82-.61,3.25,0,.45.25.45.25-.12.32-.34a3.14,3.14,0,0,1,.46-.91c.41-.61,1.07-.79,2.68-.82l4.12-.09V75.86Z"/><path class="cls-2" d="M225.67,75.91c0,2.46,0,4.57-.13,5.7-.09.79-.25,1.29-.82,1.41a4.09,4.09,0,0,1-1,.09c-.34,0-.45.16-.45.29s.2.29.54.29h6.71c1.36,0,3,.09,5.11.09,1,0,1.29,0,1.48-.7a18.13,18.13,0,0,0,.38-3c0-.29,0-.62-.25-.62s-.25.12-.32.41c-.2,1.11-.5,1.66-1.2,2a7.48,7.48,0,0,1-2.61.34c-2.84,0-3.68-.41-3.75-2.23V73.88c0-.16,0-.29.16-.29.7,0,3.84,0,4.34.12,1,.09,1.39.5,1.54,1s0,.7.09,1,0,.21.25.21.29-.37.29-.61a10.06,10.06,0,0,1,.13-1.79c.16-1.36.21-1.79.21-1.95a.25.25,0,0,0-.21-.28h0c-.13,0-.21.16-.45.34a2.71,2.71,0,0,1-1.32.41c-.66.07-4.21,0-4.86,0-.16,0-.2-.12-.2-.29V65.18c0-.16,0-.25.2-.25.57,0,3.87,0,4.34.12,1.39.12,1.61.5,1.79,1a2.52,2.52,0,0,1,.2,1c0,.21,0,.34.21.34s.29-.32.32-.45.13-1.48.16-1.79a11.88,11.88,0,0,1,.21-1.79c0-.12,0-.25-.2-.25a3.23,3.23,0,0,0-.45.12c-.21,0-.66.12-1.16.16s-6.68,0-7.55,0h-4c-.41,0-.63,0-.63.25s.2.29.46.29a5.12,5.12,0,0,1,1.11.09c.88.25,1.13.54,1.2,1.45s0,1.61,0,5.68v4.73Z"/><path class="cls-2" d="M249.69,71.2V65.52c0-.86.29-1.32,1-1.45A6.18,6.18,0,0,1,251.8,64c.34,0,.5-.09.5-.29s-.2-.25-.61-.25h-7.8c-.41,0-.61,0-.61.25s.16.29.46.29a3.71,3.71,0,0,1,.91.09c.88.25,1.13.54,1.2,1.45s0,1.61,0,5.68v4.73c0,2.46,0,4.57-.13,5.7-.09.79-.25,1.29-.82,1.41a4.09,4.09,0,0,1-1,.09c-.34,0-.45.16-.45.29s.2.29.54.29h7.18c1.38,0,3,.09,5,.09,1.45,0,1.57-.12,1.79-.73a20.43,20.43,0,0,0,.41-3.09c0-.32,0-.61-.25-.61s-.29.16-.32.41a3.21,3.21,0,0,1-.7,1.61c-.7.73-1.79.75-3.25.75-2.14,0-3.21-.16-3.68-.57s-.61-2.2-.61-5.64V71.2Z"/><path class="cls-2" d="M259.39,60a2.71,2.71,0,0,1-.46,0h-.23a.23.23,0,0,0,0,.14c0,.11-.14.57-.14.77v.16s.11,0,.14-.16.2-.34.57-.34H260v3.37c0,.21,0,.3-.27.34h-.16c-.11,0-.16,0-.16.11s0,.11.16.11h1.75c.14,0,.16,0,.16-.11s0-.11-.16-.11h-.14c-.16,0-.23-.16-.27-.34a8.59,8.59,0,0,1,0-1.13V60.45h.5c.5,0,.54.11.54.27s0,.3.11.3.11,0,.14-.23a3.78,3.78,0,0,0,0-.64V60h-2.75Zm3.05,3.77c0,.3-.11.41-.2.41h-.11c-.11,0-.16,0-.16.11s0,.11.14.11h1.21c.11,0,.11,0,.11-.11s0-.11-.14-.11h-.13A.15.15,0,0,1,263,64v-.23l.23-2.12h0L264.48,64c0,.14.14.3.23.3s.14-.11.23-.3l1.21-2.32h0l.34,2.45a.12.12,0,0,0,.1.14h1.15c.16,0,.14,0,.14-.11s0-.11-.11-.11h-.14c-.16,0-.27,0-.34-.5L266.76,60c0-.11,0-.21-.14-.21a.18.18,0,0,0-.16.14l-1.5,3.2-1.61-3.09a.19.19,0,0,0-.2-.18c-.09,0-.11.14-.14.25l-.57,3.57Z"/><polygon class="cls-2" points="161.62 52.09 161.62 13.54 278.39 13.54 278.39 130.31 161.62 130.31 161.62 91.17 157.51 91.17 157.51 134.41 282.51 134.41 282.51 9.41 157.51 9.41 157.51 52.09 161.62 52.09 161.62 52.09"/></svg>